STARTFONT 2.1
FONT -Misc-Fixed-Medium-R-Normal--8-80-75-75-C-50-ISO10646-1
SIZE 11 75 75
FONTBOUNDINGBOX 13 8 -7 -1
COMMENT "Generated by fontforge, http://fontforge.sourceforge.net"
COMMENT "Send bug reports to Alex Anderson <https://github.com/shogunatealex>"
STARTPROPERTIES 22
FONTNAME_REGISTRY ""
FOUNDRY "Misc"
FAMILY_NAME "Fixed"
WEIGHT_NAME "Medium"
SLANT "R"
SETWIDTH_NAME "Normal"
ADD_STYLE_NAME ""
PIXEL_SIZE 8
POINT_SIZE 80
RESOLUTION_X 75
RESOLUTION_Y 75
SPACING "C"
AVERAGE_WIDTH 50
CHARSET_REGISTRY "ISO10646"
CHARSET_ENCODING "1"
FONT_DESCENT 0
FONT_ASCENT 7
COPYRIGHT "Public domain font.  Share and enjoy."
DEFAULT_CHAR 0
_XMBDFED_INFO "Edited with xmbdfed 4.5."
CAP_HEIGHT 6
X_HEIGHT 4
ENDPROPERTIES
CHARS 132
STARTCHAR char0
ENCODING 0
SWIDTH 436 0
DWIDTH 5 0
BBX 4 6 0 0
BITMAP
A0
10
80
10
80
50
ENDCHAR
STARTCHAR dotbelowcomb
ENCODING 803
SWIDTH 436 0
DWIDTH 5 0
BBX 1 1 2 -1
BITMAP
80
ENDCHAR
STARTCHAR uni0324
ENCODING 804
SWIDTH 436 0
DWIDTH 5 0
BBX 3 1 1 -1
BITMAP
A0
ENDCHAR
STARTCHAR afii57664
ENCODING 1488
SWIDTH 436 0
DWIDTH 5 0
BBX 4 4 0 0
BITMAP
90
50
A0
90
ENDCHAR
STARTCHAR afii57665
ENCODING 1489
SWIDTH 436 0
DWIDTH 5 0
BBX 4 4 0 0
BITMAP
E0
20
20
F0
ENDCHAR
STARTCHAR afii57666
ENCODING 1490
SWIDTH 436 0
DWIDTH 5 0
BBX 4 5 0 0
BITMAP
40
20
20
20
D0
ENDCHAR
STARTCHAR afii57667
ENCODING 1491
SWIDTH 436 0
DWIDTH 5 0
BBX 4 4 0 0
BITMAP
F0
20
20
20
ENDCHAR
STARTCHAR afii57668
ENCODING 1492
SWIDTH 436 0
DWIDTH 5 0
BBX 4 4 0 0
BITMAP
F0
10
90
90
ENDCHAR
STARTCHAR afii57669
ENCODING 1493
SWIDTH 436 0
DWIDTH 5 0
BBX 2 5 1 0
BITMAP
80
40
40
40
40
ENDCHAR
STARTCHAR afii57670
ENCODING 1494
SWIDTH 436 0
DWIDTH 5 0
BBX 3 4 1 0
BITMAP
E0
40
40
40
ENDCHAR
STARTCHAR afii57671
ENCODING 1495
SWIDTH 436 0
DWIDTH 5 0
BBX 4 4 0 0
BITMAP
F0
50
50
50
ENDCHAR
STARTCHAR afii57672
ENCODING 1496
SWIDTH 436 0
DWIDTH 5 0
BBX 4 4 0 0
BITMAP
90
90
90
F0
ENDCHAR
STARTCHAR afii57673
ENCODING 1497
SWIDTH 436 0
DWIDTH 5 0
BBX 2 2 1 3
BITMAP
80
40
ENDCHAR
STARTCHAR afii57674
ENCODING 1498
SWIDTH 436 0
DWIDTH 5 0
BBX 4 4 0 0
BITMAP
F0
10
20
20
ENDCHAR
STARTCHAR afii57675
ENCODING 1499
SWIDTH 436 0
DWIDTH 5 0
BBX 4 5 0 0
BITMAP
80
70
10
10
E0
ENDCHAR
STARTCHAR afii57676
ENCODING 1500
SWIDTH 436 0
DWIDTH 5 0
BBX 4 5 0 0
BITMAP
80
70
10
20
40
ENDCHAR
STARTCHAR afii57677
ENCODING 1501
SWIDTH 436 0
DWIDTH 5 0
BBX 4 5 0 0
BITMAP
80
70
90
90
F0
ENDCHAR
STARTCHAR afii57678
ENCODING 1502
SWIDTH 436 0
DWIDTH 5 0
BBX 4 5 0 0
BITMAP
80
70
90
90
B0
ENDCHAR
STARTCHAR afii57679
ENCODING 1503
SWIDTH 436 0
DWIDTH 5 0
BBX 2 5 1 0
BITMAP
80
40
80
80
80
ENDCHAR
STARTCHAR afii57680
ENCODING 1504
SWIDTH 436 0
DWIDTH 5 0
BBX 2 5 1 0
BITMAP
80
40
40
40
C0
ENDCHAR
STARTCHAR afii57681
ENCODING 1505
SWIDTH 436 0
DWIDTH 5 0
BBX 5 5 0 0
BITMAP
80
78
48
48
30
ENDCHAR
STARTCHAR afii57682
ENCODING 1506
SWIDTH 436 0
DWIDTH 5 0
BBX 4 4 0 0
BITMAP
90
50
50
F0
ENDCHAR
STARTCHAR afii57683
ENCODING 1507
SWIDTH 436 0
DWIDTH 5 0
BBX 4 4 0 0
BITMAP
70
90
10
10
ENDCHAR
STARTCHAR afii57684
ENCODING 1508
SWIDTH 436 0
DWIDTH 5 0
BBX 4 4 0 0
BITMAP
F0
90
10
F0
ENDCHAR
STARTCHAR afii57685
ENCODING 1509
SWIDTH 436 0
DWIDTH 5 0
BBX 3 4 1 0
BITMAP
A0
C0
80
80
ENDCHAR
STARTCHAR afii57686
ENCODING 1510
SWIDTH 436 0
DWIDTH 5 0
BBX 4 4 0 0
BITMAP
90
60
20
F0
ENDCHAR
STARTCHAR afii57687
ENCODING 1511
SWIDTH 436 0
DWIDTH 5 0
BBX 4 4 0 0
BITMAP
E0
10
A0
80
ENDCHAR
STARTCHAR afii57688
ENCODING 1512
SWIDTH 436 0
DWIDTH 5 0
BBX 4 4 0 0
BITMAP
F0
10
10
10
ENDCHAR
STARTCHAR afii57689
ENCODING 1513
SWIDTH 436 0
DWIDTH 5 0
BBX 5 4 0 0
BITMAP
A8
C8
88
F0
ENDCHAR
STARTCHAR afii57690
ENCODING 1514
SWIDTH 436 0
DWIDTH 5 0
BBX 4 4 0 0
BITMAP
F0
50
50
D0
ENDCHAR
STARTCHAR uni23BA
ENCODING 9146
SWIDTH 436 0
DWIDTH 5 0
BBX 5 1 0 6
BITMAP
F8
ENDCHAR
STARTCHAR uni23BB
ENCODING 9147
SWIDTH 436 0
DWIDTH 5 0
BBX 5 1 0 5
BITMAP
F8
ENDCHAR
STARTCHAR uni23BC
ENCODING 9148
SWIDTH 436 0
DWIDTH 5 0
BBX 5 1 0 0
BITMAP
F8
ENDCHAR
STARTCHAR uni23BD
ENCODING 9149
SWIDTH 436 0
DWIDTH 5 0
BBX 5 1 0 -1
BITMAP
F8
ENDCHAR
STARTCHAR uni27E8
ENCODING 10216
SWIDTH 436 0
DWIDTH 5 0
BBX 2 6 1 0
BITMAP
40
40
80
80
40
40
ENDCHAR
STARTCHAR uni27E9
ENCODING 10217
SWIDTH 436 0
DWIDTH 5 0
BBX 2 6 1 0
BITMAP
80
80
40
40
80
80
ENDCHAR
STARTCHAR uni2800
ENCODING 10240
SWIDTH 436 0
DWIDTH 5 0
BBX 1 1 4 -1
BITMAP
00
ENDCHAR
STARTCHAR uni3001
ENCODING 12289
SWIDTH 750 0
DWIDTH 6 0
BBX 2 2 2 0
BITMAP
80
40
ENDCHAR
STARTCHAR uni3002
ENCODING 12290
SWIDTH 750 0
DWIDTH 6 0
BBX 3 3 2 0
BITMAP
40
A0
40
ENDCHAR
STARTCHAR uni300C
ENCODING 12300
SWIDTH 750 0
DWIDTH 6 0
BBX 2 3 1 3
BITMAP
C0
80
80
ENDCHAR
STARTCHAR uni300D
ENCODING 12301
SWIDTH 750 0
DWIDTH 6 0
BBX 2 3 3 0
BITMAP
40
40
C0
ENDCHAR
STARTCHAR uni301C
ENCODING 12316
SWIDTH 750 0
DWIDTH 6 0
BBX 5 2 0 2
BITMAP
A8
50
ENDCHAR
STARTCHAR uni301D
ENCODING 12317
SWIDTH 750 0
DWIDTH 6 0
BBX 4 2 0 4
BITMAP
A0
50
ENDCHAR
STARTCHAR uni301E
ENCODING 12318
SWIDTH 750 0
DWIDTH 6 0
BBX 4 2 1 4
BITMAP
50
A0
ENDCHAR
STARTCHAR uni3041
ENCODING 12353
SWIDTH 750 0
DWIDTH 6 0
BBX 5 4 0 0
BITMAP
F8
70
A8
C8
ENDCHAR
STARTCHAR uni3042
ENCODING 12354
SWIDTH 750 0
DWIDTH 6 0
BBX 5 5 0 0
BITMAP
40
F8
50
A8
C8
ENDCHAR
STARTCHAR uni3043
ENCODING 12355
SWIDTH 750 0
DWIDTH 6 0
BBX 5 4 0 0
BITMAP
98
88
88
C0
ENDCHAR
STARTCHAR uni3044
ENCODING 12356
SWIDTH 750 0
DWIDTH 6 0
BBX 5 5 0 0
BITMAP
98
88
88
80
C0
ENDCHAR
STARTCHAR uni3045
ENCODING 12357
SWIDTH 750 0
DWIDTH 6 0
BBX 5 4 0 0
BITMAP
20
F0
08
30
ENDCHAR
STARTCHAR uni3046
ENCODING 12358
SWIDTH 750 0
DWIDTH 6 0
BBX 5 5 0 0
BITMAP
70
00
F0
08
70
ENDCHAR
STARTCHAR uni3047
ENCODING 12359
SWIDTH 750 0
DWIDTH 6 0
BBX 5 4 0 0
BITMAP
40
E0
60
B8
ENDCHAR
STARTCHAR uni3048
ENCODING 12360
SWIDTH 750 0
DWIDTH 6 0
BBX 5 5 0 0
BITMAP
60
00
E0
60
B8
ENDCHAR
STARTCHAR uni3049
ENCODING 12361
SWIDTH 750 0
DWIDTH 6 0
BBX 5 4 0 0
BITMAP
E8
40
F8
C8
ENDCHAR
STARTCHAR uni304A
ENCODING 12362
SWIDTH 750 0
DWIDTH 6 0
BBX 5 5 0 0
BITMAP
48
E8
40
F8
C8
ENDCHAR
STARTCHAR uni304B
ENCODING 12363
SWIDTH 750 0
DWIDTH 6 0
BBX 5 5 0 0
BITMAP
40
E8
68
A0
A0
ENDCHAR
STARTCHAR uni304C
ENCODING 12364
SWIDTH 750 0
DWIDTH 6 0
BBX 5 7 0 0
BITMAP
18
00
40
E8
68
A0
A0
ENDCHAR
STARTCHAR uni304D
ENCODING 12365
SWIDTH 750 0
DWIDTH 6 0
BBX 5 5 0 0
BITMAP
78
10
38
90
C0
ENDCHAR
STARTCHAR uni304E
ENCODING 12366
SWIDTH 750 0
DWIDTH 6 0
BBX 5 7 0 0
BITMAP
18
00
F8
10
38
90
C0
ENDCHAR
STARTCHAR uni304F
ENCODING 12367
SWIDTH 750 0
DWIDTH 6 0
BBX 5 5 0 0
BITMAP
10
60
80
70
08
ENDCHAR
STARTCHAR uni3050
ENCODING 12368
SWIDTH 750 0
DWIDTH 6 0
BBX 5 5 0 0
BITMAP
20
48
88
60
10
ENDCHAR
STARTCHAR uni3051
ENCODING 12369
SWIDTH 750 0
DWIDTH 6 0
BBX 5 5 0 0
BITMAP
90
B8
90
90
B0
ENDCHAR
STARTCHAR uni3052
ENCODING 12370
SWIDTH 750 0
DWIDTH 6 0
BBX 5 6 0 0
BITMAP
08
90
B8
90
90
B0
ENDCHAR
STARTCHAR uni3053
ENCODING 12371
SWIDTH 750 0
DWIDTH 6 0
BBX 5 5 0 0
BITMAP
F8
08
00
80
78
ENDCHAR
STARTCHAR uni3054
ENCODING 12372
SWIDTH 750 0
DWIDTH 6 0
BBX 5 7 0 0
BITMAP
18
00
F8
08
00
80
78
ENDCHAR
STARTCHAR uni3055
ENCODING 12373
SWIDTH 750 0
DWIDTH 6 0
BBX 5 5 0 0
BITMAP
20
F8
20
80
F0
ENDCHAR
STARTCHAR uni3056
ENCODING 12374
SWIDTH 750 0
DWIDTH 6 0
BBX 5 7 0 0
BITMAP
18
00
20
F8
20
80
F0
ENDCHAR
STARTCHAR uni3057
ENCODING 12375
SWIDTH 750 0
DWIDTH 6 0
BBX 5 5 0 0
BITMAP
80
80
80
88
70
ENDCHAR
STARTCHAR uni3058
ENCODING 12376
SWIDTH 750 0
DWIDTH 6 0
BBX 5 5 0 0
BITMAP
A0
90
80
88
70
ENDCHAR
STARTCHAR uni3059
ENCODING 12377
SWIDTH 750 0
DWIDTH 6 0
BBX 5 5 0 0
BITMAP
10
F8
50
30
60
ENDCHAR
STARTCHAR uni305A
ENCODING 12378
SWIDTH 750 0
DWIDTH 6 0
BBX 5 7 0 0
BITMAP
18
00
20
F8
50
30
60
ENDCHAR
STARTCHAR uni305B
ENCODING 12379
SWIDTH 750 0
DWIDTH 6 0
BBX 5 5 0 0
BITMAP
50
F8
50
40
70
ENDCHAR
STARTCHAR uni305C
ENCODING 12380
SWIDTH 750 0
DWIDTH 6 0
BBX 12 7 -7 0
BITMAP
0030
0000
80A0
01F0
00A0
0080
00E0
ENDCHAR
STARTCHAR uni305D
ENCODING 12381
SWIDTH 750 0
DWIDTH 6 0
BBX 5 5 0 0
BITMAP
70
10
F8
40
30
ENDCHAR
STARTCHAR uni305E
ENCODING 12382
SWIDTH 750 0
DWIDTH 6 0
BBX 5 7 0 0
BITMAP
18
00
70
10
F8
40
30
ENDCHAR
STARTCHAR uni305F
ENCODING 12383
SWIDTH 750 0
DWIDTH 6 0
BBX 5 5 0 0
BITMAP
40
E0
58
40
58
ENDCHAR
STARTCHAR uni3060
ENCODING 12384
SWIDTH 750 0
DWIDTH 6 0
BBX 5 6 0 0
BITMAP
10
48
E0
58
40
58
ENDCHAR
STARTCHAR uni3061
ENCODING 12385
SWIDTH 750 0
DWIDTH 6 0
BBX 5 5 0 0
BITMAP
40
F8
60
10
70
ENDCHAR
STARTCHAR uni3062
ENCODING 12386
SWIDTH 750 0
DWIDTH 6 0
BBX 5 7 0 0
BITMAP
18
00
40
F8
60
10
70
ENDCHAR
STARTCHAR uni3063
ENCODING 12387
SWIDTH 750 0
DWIDTH 6 0
BBX 5 3 0 0
BITMAP
F0
08
30
ENDCHAR
STARTCHAR uni3064
ENCODING 12388
SWIDTH 750 0
DWIDTH 6 0
BBX 5 5 0 0
BITMAP
F0
08
08
08
30
ENDCHAR
STARTCHAR uni3065
ENCODING 12389
SWIDTH 750 0
DWIDTH 6 0
BBX 5 7 0 0
BITMAP
18
00
F0
08
08
08
30
ENDCHAR
STARTCHAR uni3066
ENCODING 12390
SWIDTH 750 0
DWIDTH 6 0
BBX 5 5 0 0
BITMAP
F8
10
20
20
10
ENDCHAR
STARTCHAR uni3067
ENCODING 12391
SWIDTH 750 0
DWIDTH 6 0
BBX 5 5 0 0
BITMAP
F8
10
28
20
10
ENDCHAR
STARTCHAR uni3068
ENCODING 12392
SWIDTH 750 0
DWIDTH 6 0
BBX 5 5 0 0
BITMAP
40
40
F8
80
F8
ENDCHAR
STARTCHAR uni3069
ENCODING 12393
SWIDTH 750 0
DWIDTH 6 0
BBX 5 6 0 0
BITMAP
10
48
40
F8
80
F8
ENDCHAR
STARTCHAR uni306A
ENCODING 12394
SWIDTH 750 0
DWIDTH 6 0
BBX 5 5 0 0
BITMAP
98
C0
90
B8
30
ENDCHAR
STARTCHAR uni306B
ENCODING 12395
SWIDTH 750 0
DWIDTH 6 0
BBX 5 5 0 0
BITMAP
B8
80
80
A0
B8
ENDCHAR
STARTCHAR uni306C
ENCODING 12396
SWIDTH 750 0
DWIDTH 6 0
BBX 5 5 0 0
BITMAP
50
70
D8
A8
D8
ENDCHAR
STARTCHAR uni306D
ENCODING 12397
SWIDTH 750 0
DWIDTH 6 0
BBX 5 5 0 0
BITMAP
40
C0
70
E8
58
ENDCHAR
STARTCHAR uni306E
ENCODING 12398
SWIDTH 750 0
DWIDTH 6 0
BBX 5 5 0 0
BITMAP
70
A8
A8
C8
10
ENDCHAR
STARTCHAR uni306F
ENCODING 12399
SWIDTH 750 0
DWIDTH 6 0
BBX 5 5 0 0
BITMAP
90
B8
90
B8
B0
ENDCHAR
STARTCHAR uni3070
ENCODING 12400
SWIDTH 750 0
DWIDTH 6 0
BBX 5 7 0 0
BITMAP
10
08
90
B8
90
B8
B0
ENDCHAR
STARTCHAR uni3071
ENCODING 12401
SWIDTH 750 0
DWIDTH 6 0
BBX 5 7 0 0
BITMAP
18
08
90
B8
90
B8
B0
ENDCHAR
STARTCHAR uni3072
ENCODING 12402
SWIDTH 750 0
DWIDTH 6 0
BBX 5 5 0 0
BITMAP
C0
58
90
90
60
ENDCHAR
STARTCHAR uni3073
ENCODING 12403
SWIDTH 750 0
DWIDTH 6 0
BBX 5 7 0 0
BITMAP
18
00
C0
58
90
90
60
ENDCHAR
STARTCHAR uni3074
ENCODING 12404
SWIDTH 750 0
DWIDTH 6 0
BBX 5 7 0 0
BITMAP
18
08
C0
58
90
90
60
ENDCHAR
STARTCHAR uni3075
ENCODING 12405
SWIDTH 750 0
DWIDTH 6 0
BBX 5 5 0 0
BITMAP
60
00
20
A8
A8
ENDCHAR
STARTCHAR uni3076
ENCODING 12406
SWIDTH 750 0
DWIDTH 6 0
BBX 5 7 0 0
BITMAP
18
00
60
00
20
A8
A8
ENDCHAR
STARTCHAR uni3077
ENCODING 12407
SWIDTH 750 0
DWIDTH 6 0
BBX 5 7 0 0
BITMAP
18
08
60
00
20
A8
A8
ENDCHAR
STARTCHAR uni3078
ENCODING 12408
SWIDTH 750 0
DWIDTH 6 0
BBX 5 5 0 0
BITMAP
40
A0
90
10
08
ENDCHAR
STARTCHAR uni3079
ENCODING 12409
SWIDTH 750 0
DWIDTH 6 0
BBX 5 6 0 0
BITMAP
10
48
A0
90
10
08
ENDCHAR
STARTCHAR uni307A
ENCODING 12410
SWIDTH 750 0
DWIDTH 6 0
BBX 5 6 0 0
BITMAP
18
48
A0
90
10
08
ENDCHAR
STARTCHAR uni307B
ENCODING 12411
SWIDTH 750 0
DWIDTH 6 0
BBX 5 5 0 0
BITMAP
B8
90
B8
D0
A8
ENDCHAR
STARTCHAR uni307C
ENCODING 12412
SWIDTH 750 0
DWIDTH 6 0
BBX 5 7 0 0
BITMAP
18
00
B8
90
B8
90
A8
ENDCHAR
STARTCHAR uni307D
ENCODING 12413
SWIDTH 750 0
DWIDTH 6 0
BBX 5 7 0 0
BITMAP
18
08
B8
90
B8
90
A8
ENDCHAR
STARTCHAR uni307E
ENCODING 12414
SWIDTH 750 0
DWIDTH 6 0
BBX 5 5 0 0
BITMAP
F8
20
F8
B0
E8
ENDCHAR
STARTCHAR uni307F
ENCODING 12415
SWIDTH 750 0
DWIDTH 6 0
BBX 5 5 0 0
BITMAP
C0
50
F8
D0
D0
ENDCHAR
STARTCHAR uni3080
ENCODING 12416
SWIDTH 750 0
DWIDTH 6 0
BBX 5 5 0 0
BITMAP
48
E8
40
C8
F8
ENDCHAR
STARTCHAR uni3081
ENCODING 12417
SWIDTH 750 0
DWIDTH 6 0
BBX 5 5 0 0
BITMAP
50
70
D8
A8
C8
ENDCHAR
STARTCHAR uni3082
ENCODING 12418
SWIDTH 750 0
DWIDTH 6 0
BBX 5 5 0 0
BITMAP
40
E0
40
E8
78
ENDCHAR
STARTCHAR uni3083
ENCODING 12419
SWIDTH 750 0
DWIDTH 6 0
BBX 5 4 0 0
BITMAP
50
F8
48
40
ENDCHAR
STARTCHAR uni3084
ENCODING 12420
SWIDTH 750 0
DWIDTH 6 0
BBX 5 5 0 0
BITMAP
50
F8
48
40
40
ENDCHAR
STARTCHAR uni3085
ENCODING 12421
SWIDTH 750 0
DWIDTH 6 0
BBX 5 4 0 0
BITMAP
A0
F8
B8
20
ENDCHAR
STARTCHAR uni3086
ENCODING 12422
SWIDTH 750 0
DWIDTH 6 0
BBX 5 5 0 0
BITMAP
A0
F8
A8
B8
20
ENDCHAR
STARTCHAR uni3087
ENCODING 12423
SWIDTH 750 0
DWIDTH 6 0
BBX 5 4 0 0
BITMAP
38
20
F0
E8
ENDCHAR
STARTCHAR uni3088
ENCODING 12424
SWIDTH 750 0
DWIDTH 6 0
BBX 5 5 0 0
BITMAP
20
38
20
F0
E8
ENDCHAR
STARTCHAR uni3089
ENCODING 12425
SWIDTH 750 0
DWIDTH 6 0
BBX 5 5 0 0
BITMAP
B0
80
F8
08
78
ENDCHAR
STARTCHAR uni308A
ENCODING 12426
SWIDTH 750 0
DWIDTH 6 0
BBX 5 5 0 0
BITMAP
88
88
C8
08
30
ENDCHAR
STARTCHAR uni308B
ENCODING 12427
SWIDTH 750 0
DWIDTH 6 0
BBX 5 5 0 0
BITMAP
70
10
78
A8
38
ENDCHAR
STARTCHAR uni308C
ENCODING 12428
SWIDTH 750 0
DWIDTH 6 0
BBX 5 5 0 0
BITMAP
40
C0
70
D0
58
ENDCHAR
STARTCHAR uni308D
ENCODING 12429
SWIDTH 750 0
DWIDTH 6 0
BBX 5 5 0 0
BITMAP
70
10
78
88
38
ENDCHAR
STARTCHAR uni308E
ENCODING 12430
SWIDTH 750 0
DWIDTH 6 0
BBX 5 4 0 0
BITMAP
C0
78
C8
58
ENDCHAR
STARTCHAR uni308F
ENCODING 12431
SWIDTH 750 0
DWIDTH 6 0
BBX 5 5 0 0
BITMAP
40
C0
78
C8
58
ENDCHAR
STARTCHAR uni3092
ENCODING 12434
SWIDTH 750 0
DWIDTH 6 0
BBX 5 5 0 0
BITMAP
F8
40
38
50
78
ENDCHAR
STARTCHAR uni3093
ENCODING 12435
SWIDTH 750 0
DWIDTH 6 0
BBX 5 5 0 0
BITMAP
40
40
60
A8
B0
ENDCHAR
STARTCHAR uni3095
ENCODING 12437
SWIDTH 750 0
DWIDTH 6 0
BBX 5 4 0 0
BITMAP
40
E8
68
A0
ENDCHAR
STARTCHAR uni3096
ENCODING 12438
SWIDTH 750 0
DWIDTH 6 0
BBX 5 4 0 0
BITMAP
90
B8
90
B0
ENDCHAR
STARTCHAR uni30FC
ENCODING 12540
SWIDTH 875 0
DWIDTH 7 0
BBX 6 1 0 2
BITMAP
FC
ENDCHAR
STARTCHAR ff
ENCODING 64256
SWIDTH 436 0
DWIDTH 5 0
BBX 5 6 0 0
BITMAP
50
A8
A0
F0
A0
A0
ENDCHAR
STARTCHAR fi
ENCODING 64257
SWIDTH 436 0
DWIDTH 5 0
BBX 4 6 0 0
BITMAP
20
50
40
F0
50
50
ENDCHAR
STARTCHAR fl
ENCODING 64258
SWIDTH 436 0
DWIDTH 5 0
BBX 4 6 0 0
BITMAP
30
50
50
F0
50
50
ENDCHAR
STARTCHAR uniFFFD
ENCODING 65533
SWIDTH 436 0
DWIDTH 5 0
BBX 5 8 0 -1
BITMAP
70
D8
A8
E8
D8
F8
D8
70
ENDCHAR
ENDFONT
